<svg fill="#000000" xmlns="http://www.w3.org/2000/svg"  viewBox="0 0 50 50" width="50px" height="50px"><path d="M 14.181641 5 C 9.1222552 5 5 9.1222552 5 14.181641 L 5 35.818359 C 5 40.877744 9.1222552 45 14.181641 45 L 35.818359 45 C 40.877744 45 45 40.877744 45 35.818359 L 45 14.181641 C 45 9.1222552 40.877744 5 35.818359 5 L 14.181641 5 z M 14.181641 7 L 35.818359 7 C 39.796974 7 43 10.203026 43 14.181641 L 43 35.818359 C 43 39.796974 39.796974 43 35.818359 43 L 14.181641 43 C 10.203026 43 7 39.796974 7 35.818359 L 7 14.181641 C 7 10.203026 10.203026 7 14.181641 7 z M 26.998047 13.033203 C 29.076047 17.189203 30.280688 19.532766 29.304688 25.259766 C 27.078688 23.773766 18.855 17.152 17 15 C 18.336 17.375 22.179625 22.585875 23.515625 23.921875 C 21.140625 22.289875 13.496094 16.277344 13.496094 16.277344 C 13.496094 16.277344 20.027531 26.148281 25.519531 29.488281 C 23.441531 30.156281 18.9295 32.8865 11.0625 28.0625 C 13.0665 30.8085 16.613875 36.317828 25.296875 35.798828 C 28.339875 35.650828 30.193391 34.685578 31.900391 34.017578 C 33.607391 33.349578 35.240391 33.423266 36.650391 35.947266 C 36.947391 33.646266 37.021484 31.493922 34.646484 29.044922 C 34.646484 29.044922 36.994047 20.095203 26.998047 13.033203 z"/></svg>